<svg data-v-0dd9719b="" version="1.0" xmlns="http://www.w3.org/2000/svg" xmlns:xlink="http://www.w3.org/1999/xlink" width="100%" height="100%" viewBox="0 0 340.000000 250.000000" preserveAspectRatio="xMidYMid meet" color-interpolation-filters="sRGB" style="margin: auto;"> <rect data-v-0dd9719b="" x="0" y="0" width="100%" height="100%" fill="#ffffff" fill-opacity="1" class="background"></rect> <rect data-v-0dd9719b="" x="0" y="0" width="100%" height="100%" fill="url(#watermark)" fill-opacity="1" class="watermarklayer"></rect> <g data-v-0dd9719b="" fill="#ee6a46" class="icon-text-wrapper icon-svg-group iconsvg" transform="translate(54.41500501013343,95)"><g fill="#ee6a46" class="iconsvg-imagesvg icon_container" transform="translate(0,0)"><rect fill="#ee6a46" fill-opacity="0" stroke-width="2" x="0" y="0" width="60" height="60" class="image-rect"></rect> <svg viewBox="0 0 60 59.997600095996155" x="0" y="0" width="60" height="60" class="image-svg-svg bn" style="overflow: visible;"><g hollow-target="iconBnOutline"><g mask="url(#a6035986-6fb3-4df7-b615-64cc70b8b6d3)"><svg fill="#000000" xmlns="http://www.w3.org/2000/svg" xmlns:xlink="http://www.w3.org/1999/xlink" version="1.1" x="0" y="0" viewBox="0.54496 0.546 48.91108 48.909" enable-background="new 0 0 50 50" xml:space="preserve" style="overflow: visible;" width="60" height="59.997600095996155" filtersec="colorsb1181586898" filter="url(#npEKH1XOCdqZMCcaeobl6)"><g transform="scale(1, 1) skewX(0)"><path d="M25.117,49.455c-1.077,0-2.089-0.413-2.85-1.163L1.748,28.05c-0.78-0.77-1.208-1.803-1.203-2.908  c0.005-1.097,0.435-2.135,1.212-2.923l20.145-20.42c0.797-0.808,1.855-1.253,2.98-1.253c1.077,0,2.089,0.414,2.851,1.164  l20.52,20.242c0.781,0.77,1.208,1.803,1.203,2.908c-0.005,1.096-0.436,2.134-1.213,2.922l-20.145,20.42  C27.301,49.01,26.242,49.455,25.117,49.455z M24.882,2.545c-0.585,0-1.139,0.233-1.557,0.657L3.181,23.623  c-0.407,0.413-0.633,0.956-0.636,1.527c-0.002,0.563,0.213,1.087,0.607,1.476l20.52,20.242c0.795,0.784,2.192,0.75,3.002-0.07  l20.145-20.42c0.408-0.414,0.635-0.956,0.637-1.527c0.003-0.563-0.213-1.086-0.607-1.476L26.328,3.133  C25.943,2.754,25.43,2.545,24.882,2.545z"></path></g><defs><filter id="npEKH1XOCdqZMCcaeobl6"><feColorMatrix type="matrix" values="0 0 0 0 0.9296875  0 0 0 0 0.4140625  0 0 0 0 0.2734375  0 0 0 1 0"></feColorMatrix></filter></defs></svg></g> <g><svg xmlns="http://www.w3.org/2000/svg" viewBox="0 0 75.25 75.22" width="40.1" height="40.0984" x="9.95" y="9.949600047998079" class="image-svg-icon"><g><g><path d="M37.63 75.22L20.86 58.48l6.33-6.33 10.44 10.43 31.29-31.3 6.33 6.33z" fill="#ee6a46"></path><path fill="#2b2c30" d="M31.29 48.04l27.2-27.18 6.32 6.32-27.18 27.2-6.34-6.34z"></path><path d="M37.63 0l16.76 16.76-6.34 6.32-10.42-10.42L6.34 43.94 0 37.62z" fill="#ee6a46"></path><path fill="#2b2c30" d="M43.95 27.18l-27.19 27.2-6.32-6.34 27.19-27.18 6.32 6.32z"></path></g></g></svg></g></g><mask id="a6035986-6fb3-4df7-b615-64cc70b8b6d3"><g fill="white"><svg xmlns="http://www.w3.org/2000/svg" xmlns:xlink="http://www.w3.org/1999/xlink" version="1.1" x="0" y="0" viewBox="0.54496 0.546 48.91108 48.909" enable-background="new 0 0 50 50" xml:space="preserve" style="overflow: visible;" width="60" height="59.997600095996155" filtersec="colorsb1181586898"><g transform="scale(1, 1) skewX(0)"><path d="M25.117,49.455c-1.077,0-2.089-0.413-2.85-1.163L1.748,28.05c-0.78-0.77-1.208-1.803-1.203-2.908  c0.005-1.097,0.435-2.135,1.212-2.923l20.145-20.42c0.797-0.808,1.855-1.253,2.98-1.253c1.077,0,2.089,0.414,2.851,1.164  l20.52,20.242c0.781,0.77,1.208,1.803,1.203,2.908c-0.005,1.096-0.436,2.134-1.213,2.922l-20.145,20.42  C27.301,49.01,26.242,49.455,25.117,49.455z M24.882,2.545c-0.585,0-1.139,0.233-1.557,0.657L3.181,23.623  c-0.407,0.413-0.633,0.956-0.636,1.527c-0.002,0.563,0.213,1.087,0.607,1.476l20.52,20.242c0.795,0.784,2.192,0.75,3.002-0.07  l20.145-20.42c0.408-0.414,0.635-0.956,0.637-1.527c0.003-0.563-0.213-1.086-0.607-1.476L26.328,3.133  C25.943,2.754,25.43,2.545,24.882,2.545z"></path></g><defs></defs></svg></g> <g fill="black" filter="url(#4d491b54-0993-4648-9db5-ad3ab8e11dfc)"><svg xmlns="http://www.w3.org/2000/svg" viewBox="0 0 75.25 75.22" width="40.1" height="40.0984" x="9.95" y="9.949600047998079" class="image-svg-icon"><g><g><path d="M37.63 75.22L20.86 58.48l6.33-6.33 10.44 10.43 31.29-31.3 6.33 6.33z"></path><path d="M31.29 48.04l27.2-27.18 6.32 6.32-27.18 27.2-6.34-6.34z"></path><path d="M37.63 0l16.76 16.76-6.34 6.32-10.42-10.42L6.34 43.94 0 37.62z"></path><path d="M43.95 27.18l-27.19 27.2-6.32-6.34 27.19-27.18 6.32 6.32z"></path></g></g></svg></g><defs><filter id="4d491b54-0993-4648-9db5-ad3ab8e11dfc"><feGaussianBlur in="SourceGraphic" stdDeviation="1.26"></feGaussianBlur><feComponentTransfer><feFuncA type="discrete" tableValues="0 1 1 1 1 1 1 1 1 1 1 1 1 1 0"></feFuncA></feComponentTransfer></filter></defs></mask></svg> <!----></g> <g transform="translate(67.00000381469727,2.8209381103515625)"><g data-gra="path-name" fill-rule="" class="tp-name iconsvg-namesvg" transform="translate(0,0)"><g transform="scale(1)"><g><path d="M19.22-35.17L23.18-35.17Q24.85-32.59 26.85-30.49 28.85-28.38 31.15-26.64 33.45-24.9 35.99-23.46 38.53-22.02 41.32-20.73L41.32-20.73 38.4-15.7Q36.34-16.73 34.53-17.85 32.72-18.96 31.09-20.08L31.09-20.08 31.09-16.99 10.97-16.99 10.97-19.65Q9.42-18.53 7.68-17.48 5.93-16.43 4-15.44L4-15.44 1.12-20.55Q7.91-23.74 12.28-27.52 16.64-31.3 19.22-35.17L19.22-35.17ZM14.1-22.02L28.55-22.02Q24.04-25.67 21.2-29.63L21.2-29.63Q19.69-27.56 17.97-25.69 16.25-23.82 14.1-22.02L14.1-22.02ZM7.61 3.27L7.61-13.85 34.74-13.85 34.74 3.27 7.61 3.27ZM13.24-9.03L13.24-1.81 29.24-1.81 29.24-9.03 13.24-9.03ZM47.13-16.6L47.13-33.02 59.21-33.02 59.21-0.6Q59.21 0.69 59.04 1.48 58.87 2.28 58.42 2.75 57.96 3.23 57.17 3.44 56.37 3.66 55.13 3.83L55.13 3.83 53.02 4.08 51.39-0.99 53.02-1.2Q54.09-1.33 54.33-1.59 54.57-1.85 54.57-2.71L54.57-2.71 54.57-8.56 51.51-8.56Q51.34-6.49 51.04-4.82 50.74-3.14 50.29-1.63 49.84-0.13 49.21 1.35 48.59 2.84 47.82 4.47L47.82 4.47 43.34 1.98Q44.33 0.34 45.04-1.18 45.75-2.71 46.23-4.73 46.7-6.75 46.91-9.57 47.13-12.38 47.13-16.6L47.13-16.6ZM77.57-8.73L82.39-7.22Q82.39-6.97 82.37-6.34 82.34-5.72 82.28-4.99 82.22-4.26 82.15-3.48 82.09-2.71 82.04-2.11L82.04-2.11Q81.83-0.43 81.38 0.65 80.93 1.72 80.15 2.37 79.38 3.01 78.17 3.29 76.97 3.57 75.29 3.66L75.29 3.66Q70.99 3.87 66.74 3.66L66.74 3.66Q65.27 3.61 64.16 3.29 63.04 2.97 62.26 2.26 61.49 1.55 61.1 0.34 60.72-0.86 60.72-2.71L60.72-2.71 60.72-32.72 80.15-32.72 80.15-12.56 65.7-12.56 65.7-4.6Q65.7-3.74 65.81-3.18 65.92-2.62 66.22-2.28 66.52-1.94 67.08-1.76 67.64-1.59 68.59-1.55L68.59-1.55Q71.12-1.42 73.7-1.55L73.7-1.55Q75.59-1.63 76.28-2.15 76.97-2.67 77.19-4.17L77.19-4.17Q77.36-5.2 77.44-6.51 77.53-7.83 77.57-8.73L77.57-8.73ZM54.57-27.69L51.73-27.69 51.73-23.01 54.57-23.01 54.57-27.69ZM68.11-27.65L65.7-27.65 65.7-17.85 68.11-17.85 68.11-27.65ZM75.25-17.85L75.25-27.65 72.84-27.65 72.84-17.85 75.25-17.85ZM51.73-13.63L54.57-13.63 54.57-17.93 51.73-17.93 51.73-13.63ZM124.87-10.62L122.12-10.62 121.99-6.02 123.84-6.02 123.84-1.55 121.86-1.55 121.86-1.08Q121.78 1.72 120.72 2.86 119.67 4 117.09 4.21L117.09 4.21 114.17 4.47 112.83 0.13 115.84-0.17Q116.7-0.26 117.09-0.56 117.48-0.86 117.61-1.55L117.61-1.55 105.61-1.55 106.3-10.62 104.83-10.62Q104.28-7.18 103.44-3.7 102.6-0.22 101.35 4L101.35 4 97.01 2.84Q98.34-1.03 99.24-4.58 100.15-8.13 100.88-11.78L100.88-11.78 102.99-11.14 104.66-10.66 104.66-15.05 106.64-15.05 107.07-20.64 103.72-23.18Q104.58-24.38 105.46-25.78 106.34-27.18 107.11-28.64 107.89-30.1 108.49-31.52 109.09-32.94 109.48-34.19L109.48-34.19 113.78-33.15Q113.56-32.55 113.35-31.93 113.13-31.3 112.92-30.7L112.92-30.7 123.28-30.7 123.28-26.14 110.81-26.14 109.74-24.17 122.46-24.17 122.21-15.05 124.87-15.05 124.87-10.62ZM98.81-19.05L98.81-3.53 88.32-3.53 88.32-30.75 98.81-30.75 98.81-30.14 101.61-33.2Q102.21-32.68 102.88-32.04 103.54-31.39 104.23-30.72 104.92-30.06 105.54-29.37 106.17-28.68 106.68-28.08L106.68-28.08 103.37-24.64Q102.47-25.76 101.18-27.15 99.89-28.55 98.81-29.54L98.81-29.54 98.81-22.45 100.32-23.95Q100.92-23.39 101.65-22.66 102.38-21.93 103.11-21.16 103.85-20.38 104.49-19.61 105.14-18.83 105.61-18.28L105.61-18.28 102.43-14.84Q101.78-15.7 100.79-16.83 99.8-17.97 98.81-19.05L98.81-19.05ZM94.6-8.73L94.6-25.67 92.54-25.67 92.54-8.73 94.6-8.73ZM111.07-19.65L110.73-15.05 114.38-15.05Q113.82-15.7 113.13-16.4 112.45-17.11 111.84-17.59L111.84-17.59 113.78-19.65 111.07-19.65ZM115.37-15.05L118.12-15.05Q118.21-16.77 118.23-18.04 118.25-19.31 118.25-19.65L118.25-19.65 114.34-19.65Q114.9-19.09 115.71-18.23 116.53-17.37 117-16.77L117-16.77 115.37-15.05ZM110.38-10.62L110.04-6.02 114.08-6.02Q113.56-6.62 112.88-7.33 112.19-8.04 111.63-8.6L111.63-8.6 113.48-10.62 110.38-10.62ZM117.82-6.02L117.95-10.62 114.17-10.62Q114.81-10.02 115.54-9.25 116.27-8.47 116.75-7.96L116.75-7.96 114.94-6.02 117.82-6.02ZM131.11-33.28L165.29-33.28 165.29 3.57 131.11 3.57 131.11-33.28ZM159.92-1.12L159.92-28.42 136.61-28.42 136.61-1.12 159.92-1.12ZM139.62-5.38L136.74-9.89Q138.07-10.71 139.53-11.78 141-12.86 142.39-14.08 143.79-15.31 145.1-16.62 146.42-17.93 147.49-19.22L147.49-19.22 137.9-19.22 137.9-23.87 150.24-23.87 150.24-27.43 155.32-27.26 155.32-23.87 158.8-23.87 158.8-19.22 155.32-19.22 155.32-8.99Q155.32-7.14 155.12-5.96 154.93-4.77 154.33-4.04 153.73-3.31 152.59-2.97 151.45-2.62 149.55-2.45L149.55-2.45 146.46-2.19 145.04-6.88 147.88-7.1Q148.69-7.14 149.17-7.25 149.64-7.35 149.88-7.65 150.11-7.96 150.18-8.49 150.24-9.03 150.24-9.98L150.24-9.98 150.24-15.57Q149.21-14.15 148.07-12.86 146.93-11.57 145.64-10.34 144.35-9.12 142.87-7.89 141.38-6.67 139.62-5.38L139.62-5.38Z" transform="translate(-1.1200000047683716, 35.16999816894531)"></path></g> <!----> <!----> <!----> <!----> <!----> <!----> <!----></g></g> <g data-gra="path-slogan" fill-rule="" class="tp-slogan iconsvg-slogansvg" fill="#2b2c30" transform="translate(5,46.63999938964844)"><rect x="0" height="1" y="3.8600001335144043" width="28.110000610351562"></rect> <rect height="1" y="3.8600001335144043" width="28.110000610351562" x="126.05999755859375"></rect> <g transform="translate(31.110000610351562,0)"><g transform="scale(1)"><path d="M2.06-5.06L6.56-5.06L6.56-8.58L7.73-8.58L7.73 0L6.56 0L6.56-3.98L2.06-3.98L2.06 0L0.89 0L0.89-8.58L2.06-8.58L2.06-5.06ZM11.06-1.03L16.22-1.03L16.22 0L9.89 0L9.89-8.58L16.13-8.58L16.13-7.59L11.06-7.59L11.06-4.92L15.75-4.92L15.75-3.89L11.06-3.89L11.06-1.03ZM23.49-3.89L19.27-3.89L19.27 0L18.10 0L18.10-8.58L24.05-8.58L24.05-7.59L19.27-7.59L19.27-4.92L23.49-4.92L23.49-3.89ZM26.77-1.03L31.93-1.03L31.93 0L25.60 0L25.60-8.58L31.83-8.58L31.83-7.59L26.77-7.59L26.77-4.92L31.46-4.92L31.46-3.89L26.77-3.89L26.77-1.03ZM33.85-8.58L35.02-8.58L35.02 0L33.85 0L33.85-8.58ZM41.97-5.06L46.47-5.06L46.47-8.58L47.64-8.58L47.64 0L46.47 0L46.47-3.98L41.97-3.98L41.97 0L40.79 0L40.79-8.58L41.97-8.58L41.97-5.06ZM55.33 0L54.48-2.48L51.01-2.48L50.12 0L48.95 0L52.19-8.58L53.50-8.58L56.59 0L55.33 0ZM52.75-7.31L51.39-3.52L54.06-3.52L52.80-7.31L52.75-7.31ZM58.05-8.58L59.22-8.58L59.22 0L58.05 0L58.05-8.58ZM63.63-7.59L60.72-7.59L60.72-8.58L67.66-8.58L67.66-7.59L64.75-7.59L64.75 0L63.63 0L63.63-7.59ZM74.60-3.19L74.60-8.58L75.77-8.58L75.77-3.05Q75.63 0.05 72.26 0.14L72.26 0.14Q69.11 0.05 68.97-2.86L68.97-2.86L68.97-8.58L70.15-8.58L70.15-3.19Q70.19-0.84 72.30-0.80L72.30-0.80Q74.60-0.84 74.60-3.19L74.60-3.19ZM83.46 0L82.62-2.48L79.15-2.48L78.26 0L77.09 0L80.32-8.58L81.63-8.58L84.73 0L83.46 0ZM80.88-7.31L79.52-3.52L82.19-3.52L80.93-7.31L80.88-7.31ZM87.40-8.58L91.71-1.64L91.71-8.58L92.84-8.58L92.84 0L91.52 0L87.17-6.94L87.12-6.94L87.12 0L85.99 0L85.99-8.58L87.40-8.58Z" transform="translate(-0.890625, 8.578125)"></path></g></g></g></g></g><defs v-gra="od"></defs></svg>